@startuml StateDiagramResumeState
state END_GAME
state INITIAL
state EXIT
state requested as " "
state allowed as " "
state if <<choice>>

[*] --> END_GAME
END_GAME --> requested: Player request to resume a new game
requested --> allowed: System requests to continue
allowed --> if
if --> INITIAL: Player introduces yes
if --> EXIT: Player introduces no
INITIAL --> [*]
EXIT --> [*]
@enduml