@startuml ContextDiagram
state INITIAL
state IN_GAME
state END_GAME
state EXIT
state if_finished <<choice>>
state if_resumed <<choice>>

[*] --> INITIAL
INITIAL --> IN_GAME: Start
IN_GAME --> if_finished: Play
IN_GAME --> if_finished: Undo
IN_GAME --> if_finished: Redo
if_finished --> IN_GAME
if_finished --> END_GAME: [finished]
END_GAME --> if_resumed: Resume
if_resumed --> INITIAL: [continued]
if_resumed --> EXIT
EXIT --> [*]
@enduml